<svg width="128" height="128" viewBox="0 0 128 128" xmlns="http://www.w3.org/2000/svg">
  <!-- 背景圆角矩形 - GitHub蓝色 -->
  <rect x="4" y="4" width="120" height="120" rx="20" ry="20" fill="#0969da"/>
  
  <!-- GitHub图标 - 居中缩小版 -->
  <g transform="translate(64, 48) scale(1.3)">
    <path d="M0 -24C-13.2 -24 -24 -13.2 -24 0c0 10.6 6.8 19.5 16.3 22.7 1.2.2 1.6-.5 1.6-1.1v-3.9c-6.6 1.4-8-3.2-8-3.2-1.1-2.7-2.6-3.4-2.6-3.4-2.1-1.5.2-1.4.2-1.4 2.4.2 3.7 2.5 3.7 2.5 2.1 3.6 5.6 2.5 6.9 2 .2-1.5.8-2.5 1.5-3.2-5.3-.6-10.8-2.6-10.8-11.7 0-2.6.9-4.7 2.5-6.4-.3-.6-1.1-3 .2-6.3 0 0 2-.6 6.5 2.5 1.9-.5 3.9-.8 6-.8s4.1.3 6 .8c4.5-3.1 6.5-2.5 6.5-2.5 1.3 3.3.5 5.7.2 6.3 1.5 1.7 2.5 3.8 2.5 6.4 0 9.1-5.5 11.1-10.8 11.7.6.6 1.3 1.6 1.3 3.2v4.8c0 .6.4 1.3 1.6 1.1C17.2 19.5 24 10.6 24 0c0-13.2-10.8-24-24-24z" fill="#ffffff"/>
  </g>
  
  <!-- 图片图标 - 下方 -->
  <rect x="20" y="78" width="88" height="36" rx="4" ry="4" fill="#ffffff" opacity="0.9"/>
  
  <!-- 图片内容 - 山峰 -->
  <path d="M28 106 L40 93 L52 100 L64 86 L76 96 L88 90 L100 104 L100 106 Z" fill="#0969da" opacity="0.8"/>
  
  <!-- 太阳 - 与GitHub图标垂直居中对齐 -->
  <circle cx="85" cy="48" r="3" fill="#ffffff" opacity="0.8"/>
  
  <!-- 图片边框 -->
  <rect x="20" y="78" width="88" height="36" rx="4" ry="4" fill="none" stroke="#0969da" stroke-width="1" opacity="0.3"/>
</svg>
